<?xml version="1.0" encoding="UTF-8" standalone="no"?><!DOCTYPE svg PUBLIC "-//W3C//DTD SVG 1.1//EN" "http://www.w3.org/Graphics/SVG/1.1/DTD/svg11.dtd"><svg width="100%" height="100%" viewBox="0 0 1000 1000" version="1.1" xmlns="http://www.w3.org/2000/svg" xmlns:xlink="http://www.w3.org/1999/xlink" xml:space="preserve" xmlns:serif="http://www.serif.com/" style="fill-rule:evenodd;clip-rule:evenodd;stroke-linejoin:round;stroke-miterlimit:2;"><rect id="Square" x="0" y="0" width="1000" height="1000" style="fill:none;"/><g><path d="M482.63,672.899c0,102.111 -8.421,143.167 -31.581,167.379c-20.001,21.053 -52.635,30.528 -94.743,33.687l15.791,125.271c76.847,0 151.588,-18.949 198.96,-63.162c47.372,-44.214 72.637,-112.639 72.637,-225.278l0,-446.346l-161.064,0l0,408.449Z" style="fill:#0bc78b;fill-rule:nonzero;"/><path d="M492.294,74.627c-12.458,36.056 -14.596,79.476 -5.126,130.088c58.404,1.641 114.582,-22.511 133.326,-56.399c20.317,-27.597 29.521,-76.942 18.476,-147.016c-51.395,-3.467 -91.662,10.127 -118.457,33.551c-11.664,10.197 -22.315,22.689 -28.219,39.776" style="fill:#0bc78b;fill-rule:nonzero;"/></g></svg>